<mxfile host="app.diagrams.net" modified="2024-07-07T16:31:40.921Z" agent="Mozilla/5.0 (Windows NT 10.0; Win64; x64) AppleWebKit/537.36 (KHTML, like Gecko) Chrome/126.0.0.0 Safari/537.36 Edg/126.0.0.0" version="24.6.4" etag="4BCz8Q2oSaMWacsGGwP2" type="github">
  <diagram name="Page-1" id="gqN8DNMm4H5qilcvLW7O">
    <mxGraphModel>
      <root>
        <mxCell id="0" />
        <mxCell id="1" parent="0" />
      </root>
    </mxGraphModel>
  </diagram>
</mxfile>
